<mxfile host="app.diagrams.net" agent="Mozilla/5.0 (X11; Ubuntu; Linux x86_64; rv:138.0) Gecko/20100101 Firefox/138.0" version="27.0.5" pages="2">
  <diagram id="C5RBs43oDa-KdzZeNtuy" name="Page-1">
    <mxGraphModel dx="1656" dy="829" grid="0" gridSize="10" guides="1" tooltips="1" connect="1" arrows="1" fold="1" page="1" pageScale="1" pageWidth="1169" pageHeight="827" math="0" shadow="0">
      <root>
        <mxCell id="WIyWlLk6GJQsqaUBKTNV-0" />
        <mxCell id="WIyWlLk6GJQsqaUBKTNV-1" parent="WIyWlLk6GJQsqaUBKTNV-0" />
        <mxCell id="WIyWlLk6GJQsqaUBKTNV-3" value="PACCHI" style="rounded=1;whiteSpace=wrap;html=1;fontSize=12;glass=0;strokeWidth=1;shadow=0;" parent="WIyWlLk6GJQsqaUBKTNV-1" vertex="1">
          <mxGeometry x="659.25" y="299" width="120" height="40" as="geometry" />
        </mxCell>
        <mxCell id="WIyWlLk6GJQsqaUBKTNV-7" value="CORRIERE" style="rounded=1;whiteSpace=wrap;html=1;fontSize=12;glass=0;strokeWidth=1;shadow=0;" parent="WIyWlLk6GJQsqaUBKTNV-1" vertex="1">
          <mxGeometry x="899.25" y="523" width="120" height="40" as="geometry" />
        </mxCell>
        <mxCell id="WIyWlLk6GJQsqaUBKTNV-11" value="CLIENTE" style="rounded=1;whiteSpace=wrap;html=1;fontSize=12;glass=0;strokeWidth=1;shadow=0;" parent="WIyWlLk6GJQsqaUBKTNV-1" vertex="1">
          <mxGeometry x="658.75" y="526" width="120" height="40" as="geometry" />
        </mxCell>
        <mxCell id="WIyWlLk6GJQsqaUBKTNV-12" value="FILIALE" style="rounded=1;whiteSpace=wrap;html=1;fontSize=12;glass=0;strokeWidth=1;shadow=0;" parent="WIyWlLk6GJQsqaUBKTNV-1" vertex="1">
          <mxGeometry x="383.5" y="565" width="120" height="40" as="geometry" />
        </mxCell>
        <mxCell id="enNSre5mIDpdEpU6eGM5-0" value="TRACKING" style="rounded=1;whiteSpace=wrap;html=1;fontSize=12;glass=0;strokeWidth=1;shadow=0;" parent="WIyWlLk6GJQsqaUBKTNV-1" vertex="1">
          <mxGeometry x="228.5" y="398" width="120" height="40" as="geometry" />
        </mxCell>
        <mxCell id="enNSre5mIDpdEpU6eGM5-1" value="SEDE" style="rhombus;whiteSpace=wrap;html=1;shadow=0;fontFamily=Helvetica;fontSize=12;align=center;strokeWidth=1;spacing=6;spacingTop=-4;" parent="WIyWlLk6GJQsqaUBKTNV-1" vertex="1">
          <mxGeometry x="909.25" y="588" width="100" height="80" as="geometry" />
        </mxCell>
        <mxCell id="enNSre5mIDpdEpU6eGM5-4" value="CONSEGNA" style="rhombus;whiteSpace=wrap;html=1;rounded=1;glass=0;strokeWidth=1;shadow=0;" parent="WIyWlLk6GJQsqaUBKTNV-1" vertex="1">
          <mxGeometry x="919.25" y="375" width="80" height="80" as="geometry" />
        </mxCell>
        <mxCell id="enNSre5mIDpdEpU6eGM5-9" value="ORDINE" style="rhombus;whiteSpace=wrap;html=1;rounded=1;glass=0;strokeWidth=1;shadow=0;" parent="WIyWlLk6GJQsqaUBKTNV-1" vertex="1">
          <mxGeometry x="678.75" y="375" width="80" height="80" as="geometry" />
        </mxCell>
        <mxCell id="enNSre5mIDpdEpU6eGM5-12" value="STATUS" style="rhombus;whiteSpace=wrap;html=1;rounded=1;glass=0;strokeWidth=1;shadow=0;" parent="WIyWlLk6GJQsqaUBKTNV-1" vertex="1">
          <mxGeometry x="437.75" y="379" width="80" height="80" as="geometry" />
        </mxCell>
        <mxCell id="enNSre5mIDpdEpU6eGM5-15" value="BUNDLE" style="rounded=1;whiteSpace=wrap;html=1;fontSize=12;glass=0;strokeWidth=1;shadow=0;" parent="WIyWlLk6GJQsqaUBKTNV-1" vertex="1">
          <mxGeometry x="500" y="121" width="120" height="40" as="geometry" />
        </mxCell>
        <mxCell id="enNSre5mIDpdEpU6eGM5-16" value="PACCHI ASSICURATI" style="rounded=1;whiteSpace=wrap;html=1;fontSize=12;glass=0;strokeWidth=1;shadow=0;" parent="WIyWlLk6GJQsqaUBKTNV-1" vertex="1">
          <mxGeometry x="660" y="121" width="120" height="40" as="geometry" />
        </mxCell>
        <mxCell id="enNSre5mIDpdEpU6eGM5-17" value="PACCHI REGALO" style="rounded=1;whiteSpace=wrap;html=1;fontSize=12;glass=0;strokeWidth=1;shadow=0;" parent="WIyWlLk6GJQsqaUBKTNV-1" vertex="1">
          <mxGeometry x="820" y="121" width="120" height="40" as="geometry" />
        </mxCell>
        <mxCell id="enNSre5mIDpdEpU6eGM5-19" value="" style="shape=flexArrow;endArrow=classic;html=1;rounded=0;entryX=0.5;entryY=0;entryDx=0;entryDy=0;" parent="WIyWlLk6GJQsqaUBKTNV-1" target="WIyWlLk6GJQsqaUBKTNV-3" edge="1">
          <mxGeometry width="50" height="50" relative="1" as="geometry">
            <mxPoint x="719" y="199" as="sourcePoint" />
            <mxPoint x="763" y="129" as="targetPoint" />
          </mxGeometry>
        </mxCell>
        <mxCell id="enNSre5mIDpdEpU6eGM5-21" value="" style="endArrow=none;html=1;rounded=0;entryX=0.5;entryY=1;entryDx=0;entryDy=0;" parent="WIyWlLk6GJQsqaUBKTNV-1" target="enNSre5mIDpdEpU6eGM5-17" edge="1">
          <mxGeometry width="50" height="50" relative="1" as="geometry">
            <mxPoint x="719" y="182" as="sourcePoint" />
            <mxPoint x="769" y="441" as="targetPoint" />
            <Array as="points">
              <mxPoint x="880" y="182" />
            </Array>
          </mxGeometry>
        </mxCell>
        <mxCell id="enNSre5mIDpdEpU6eGM5-22" value="" style="endArrow=none;html=1;rounded=0;entryX=0.5;entryY=1;entryDx=0;entryDy=0;" parent="WIyWlLk6GJQsqaUBKTNV-1" edge="1">
          <mxGeometry width="50" height="50" relative="1" as="geometry">
            <mxPoint x="718" y="181" as="sourcePoint" />
            <mxPoint x="559" y="121" as="targetPoint" />
            <Array as="points">
              <mxPoint x="559" y="181" />
            </Array>
          </mxGeometry>
        </mxCell>
        <mxCell id="enNSre5mIDpdEpU6eGM5-23" value="" style="endArrow=none;html=1;rounded=0;entryX=0.5;entryY=1;entryDx=0;entryDy=0;" parent="WIyWlLk6GJQsqaUBKTNV-1" edge="1">
          <mxGeometry width="50" height="50" relative="1" as="geometry">
            <mxPoint x="719" y="199" as="sourcePoint" />
            <mxPoint x="718.75" y="161" as="targetPoint" />
            <Array as="points" />
          </mxGeometry>
        </mxCell>
        <mxCell id="enNSre5mIDpdEpU6eGM5-25" value="(0,N)" style="text;strokeColor=none;align=center;fillColor=none;html=1;verticalAlign=middle;whiteSpace=wrap;rounded=0;" parent="WIyWlLk6GJQsqaUBKTNV-1" vertex="1">
          <mxGeometry x="567.25" y="284" width="60" height="30" as="geometry" />
        </mxCell>
        <mxCell id="enNSre5mIDpdEpU6eGM5-26" value="(0,N)" style="text;strokeColor=none;align=center;fillColor=none;html=1;verticalAlign=middle;whiteSpace=wrap;rounded=0;" parent="WIyWlLk6GJQsqaUBKTNV-1" vertex="1">
          <mxGeometry x="903.25" y="498" width="60" height="30" as="geometry" />
        </mxCell>
        <mxCell id="enNSre5mIDpdEpU6eGM5-29" value="(1,1)" style="text;strokeColor=none;align=center;fillColor=none;html=1;verticalAlign=middle;whiteSpace=wrap;rounded=0;" parent="WIyWlLk6GJQsqaUBKTNV-1" vertex="1">
          <mxGeometry x="799.25" y="289" width="60" height="30" as="geometry" />
        </mxCell>
        <mxCell id="enNSre5mIDpdEpU6eGM5-30" value="TRANSITO" style="rhombus;whiteSpace=wrap;html=1;rounded=1;glass=0;strokeWidth=1;shadow=0;" parent="WIyWlLk6GJQsqaUBKTNV-1" vertex="1">
          <mxGeometry x="248.5" y="543" width="80" height="80" as="geometry" />
        </mxCell>
        <mxCell id="enNSre5mIDpdEpU6eGM5-33" value="(1,1)" style="text;strokeColor=none;align=center;fillColor=none;html=1;verticalAlign=middle;whiteSpace=wrap;rounded=0;" parent="WIyWlLk6GJQsqaUBKTNV-1" vertex="1">
          <mxGeometry x="278.25" y="439" width="60" height="30" as="geometry" />
        </mxCell>
        <mxCell id="enNSre5mIDpdEpU6eGM5-34" value="(1,N)" style="text;strokeColor=none;align=center;fillColor=none;html=1;verticalAlign=middle;whiteSpace=wrap;rounded=0;" parent="WIyWlLk6GJQsqaUBKTNV-1" vertex="1">
          <mxGeometry x="334" y="556" width="60" height="30" as="geometry" />
        </mxCell>
        <mxCell id="enNSre5mIDpdEpU6eGM5-35" value="(1,N)" style="text;strokeColor=none;align=center;fillColor=none;html=1;verticalAlign=middle;whiteSpace=wrap;rounded=0;" parent="WIyWlLk6GJQsqaUBKTNV-1" vertex="1">
          <mxGeometry x="907" y="566" width="60" height="30" as="geometry" />
        </mxCell>
        <mxCell id="enNSre5mIDpdEpU6eGM5-36" value="(1,N)" style="text;strokeColor=none;align=center;fillColor=none;html=1;verticalAlign=middle;whiteSpace=wrap;rounded=0;" parent="WIyWlLk6GJQsqaUBKTNV-1" vertex="1">
          <mxGeometry x="497" y="561" width="60" height="30" as="geometry" />
        </mxCell>
        <mxCell id="enNSre5mIDpdEpU6eGM5-37" value="(0,N)" style="text;strokeColor=none;align=center;fillColor=none;html=1;verticalAlign=middle;whiteSpace=wrap;rounded=0;" parent="WIyWlLk6GJQsqaUBKTNV-1" vertex="1">
          <mxGeometry x="663.25" y="498" width="60" height="30" as="geometry" />
        </mxCell>
        <mxCell id="enNSre5mIDpdEpU6eGM5-39" value="(1,1)" style="text;strokeColor=none;align=center;fillColor=none;html=1;verticalAlign=middle;whiteSpace=wrap;rounded=0;" parent="WIyWlLk6GJQsqaUBKTNV-1" vertex="1">
          <mxGeometry x="343.25" y="392" width="60" height="30" as="geometry" />
        </mxCell>
        <mxCell id="enNSre5mIDpdEpU6eGM5-40" value="(1,1)" style="text;strokeColor=none;align=center;fillColor=none;html=1;verticalAlign=middle;whiteSpace=wrap;rounded=0;" parent="WIyWlLk6GJQsqaUBKTNV-1" vertex="1">
          <mxGeometry x="666.25" y="338" width="60" height="30" as="geometry" />
        </mxCell>
        <mxCell id="enNSre5mIDpdEpU6eGM5-49" value="AGENZIA" style="html=1;verticalAlign=bottom;labelBackgroundColor=none;endArrow=oval;endFill=0;endSize=8;rounded=0;" parent="WIyWlLk6GJQsqaUBKTNV-1" edge="1">
          <mxGeometry x="-0.0312" width="160" relative="1" as="geometry">
            <mxPoint x="1019.25" y="532" as="sourcePoint" />
            <mxPoint x="1099.25" y="532" as="targetPoint" />
            <mxPoint as="offset" />
          </mxGeometry>
        </mxCell>
        <mxCell id="enNSre5mIDpdEpU6eGM5-50" value="EMAIL" style="endArrow=none;html=1;rounded=0;align=center;verticalAlign=top;endFill=0;labelBackgroundColor=none;endSize=6;startArrow=oval;startFill=1;entryX=0;entryY=0.5;entryDx=0;entryDy=0;" parent="WIyWlLk6GJQsqaUBKTNV-1" target="WIyWlLk6GJQsqaUBKTNV-11" edge="1">
          <mxGeometry x="0.1823" y="21" relative="1" as="geometry">
            <mxPoint x="608" y="546" as="sourcePoint" />
            <mxPoint x="788" y="625" as="targetPoint" />
            <Array as="points">
              <mxPoint x="628" y="546" />
            </Array>
            <mxPoint as="offset" />
          </mxGeometry>
        </mxCell>
        <mxCell id="enNSre5mIDpdEpU6eGM5-51" value="" style="endArrow=none;html=1;rounded=0;align=center;verticalAlign=top;endFill=0;labelBackgroundColor=none;endSize=6;startArrow=oval;startFill=1;" parent="WIyWlLk6GJQsqaUBKTNV-1" edge="1">
          <mxGeometry relative="1" as="geometry">
            <mxPoint x="397" y="432" as="sourcePoint" />
            <mxPoint x="287" y="377" as="targetPoint" />
            <Array as="points">
              <mxPoint x="397" y="377" />
              <mxPoint x="290" y="377" />
            </Array>
          </mxGeometry>
        </mxCell>
        <mxCell id="enNSre5mIDpdEpU6eGM5-52" value="ID" style="endArrow=none;html=1;rounded=0;align=center;verticalAlign=top;endFill=0;labelBackgroundColor=none;endSize=6;startArrow=oval;startFill=1;entryX=0.115;entryY=-0.05;entryDx=0;entryDy=0;entryPerimeter=0;" parent="WIyWlLk6GJQsqaUBKTNV-1" edge="1">
          <mxGeometry x="-0.1304" y="20" relative="1" as="geometry">
            <mxPoint x="619" y="289" as="sourcePoint" />
            <mxPoint x="678.05" y="299" as="targetPoint" />
            <Array as="points">
              <mxPoint x="678" y="289" />
            </Array>
            <mxPoint as="offset" />
          </mxGeometry>
        </mxCell>
        <mxCell id="enNSre5mIDpdEpU6eGM5-54" value="C.F." style="endArrow=none;html=1;rounded=0;align=center;verticalAlign=top;endFill=0;labelBackgroundColor=none;endSize=6;startArrow=oval;startFill=1;" parent="WIyWlLk6GJQsqaUBKTNV-1" edge="1">
          <mxGeometry x="-0.0741" y="-24" relative="1" as="geometry">
            <mxPoint x="1040" y="509" as="sourcePoint" />
            <mxPoint x="997" y="526" as="targetPoint" />
            <Array as="points">
              <mxPoint x="997" y="509" />
            </Array>
            <mxPoint as="offset" />
          </mxGeometry>
        </mxCell>
        <mxCell id="enNSre5mIDpdEpU6eGM5-55" value="COSTO" style="html=1;verticalAlign=bottom;labelBackgroundColor=none;endArrow=oval;endFill=0;endSize=8;rounded=0;exitX=0.865;exitY=-0.05;exitDx=0;exitDy=0;exitPerimeter=0;" parent="WIyWlLk6GJQsqaUBKTNV-1" edge="1">
          <mxGeometry x="0.2309" y="1" width="160" relative="1" as="geometry">
            <mxPoint x="763.05" y="298" as="sourcePoint" />
            <mxPoint x="839" y="279" as="targetPoint" />
            <Array as="points">
              <mxPoint x="763" y="279" />
            </Array>
            <mxPoint as="offset" />
          </mxGeometry>
        </mxCell>
        <mxCell id="enNSre5mIDpdEpU6eGM5-56" value="GRADO" style="html=1;verticalAlign=bottom;labelBackgroundColor=none;endArrow=oval;endFill=0;endSize=8;rounded=0;" parent="WIyWlLk6GJQsqaUBKTNV-1" edge="1">
          <mxGeometry width="160" relative="1" as="geometry">
            <mxPoint x="1018.75" y="560" as="sourcePoint" />
            <mxPoint x="1098" y="560" as="targetPoint" />
          </mxGeometry>
        </mxCell>
        <mxCell id="enNSre5mIDpdEpU6eGM5-58" value="DATAORA" style="html=1;verticalAlign=bottom;labelBackgroundColor=none;endArrow=oval;endFill=0;endSize=8;rounded=0;exitX=0.75;exitY=0;exitDx=0;exitDy=0;" parent="WIyWlLk6GJQsqaUBKTNV-1" edge="1" source="enNSre5mIDpdEpU6eGM5-0">
          <mxGeometry x="0.3334" y="2" width="160" relative="1" as="geometry">
            <mxPoint x="278.25" y="367" as="sourcePoint" />
            <mxPoint x="247" y="368" as="targetPoint" />
            <Array as="points">
              <mxPoint x="319" y="368" />
            </Array>
            <mxPoint as="offset" />
          </mxGeometry>
        </mxCell>
        <mxCell id="enNSre5mIDpdEpU6eGM5-59" value="STATUS" style="html=1;verticalAlign=bottom;labelBackgroundColor=none;endArrow=oval;endFill=0;endSize=8;rounded=0;exitX=0;exitY=1;exitDx=0;exitDy=0;" parent="WIyWlLk6GJQsqaUBKTNV-1" edge="1">
          <mxGeometry x="0.2727" width="160" relative="1" as="geometry">
            <mxPoint x="230.5" y="438" as="sourcePoint" />
            <mxPoint x="147" y="450.44000000000005" as="targetPoint" />
            <Array as="points">
              <mxPoint x="217" y="450.44000000000005" />
            </Array>
            <mxPoint as="offset" />
          </mxGeometry>
        </mxCell>
        <mxCell id="enNSre5mIDpdEpU6eGM5-60" value="TELEFONO" style="html=1;verticalAlign=bottom;labelBackgroundColor=none;endArrow=oval;endFill=0;endSize=8;rounded=0;" parent="WIyWlLk6GJQsqaUBKTNV-1" edge="1">
          <mxGeometry x="-0.0476" width="160" relative="1" as="geometry">
            <mxPoint x="738" y="565" as="sourcePoint" />
            <mxPoint x="844" y="585" as="targetPoint" />
            <Array as="points">
              <mxPoint x="738" y="585" />
            </Array>
            <mxPoint as="offset" />
          </mxGeometry>
        </mxCell>
        <mxCell id="enNSre5mIDpdEpU6eGM5-62" value="NOME" style="html=1;verticalAlign=bottom;labelBackgroundColor=none;endArrow=oval;endFill=0;endSize=8;rounded=0;exitX=0.327;exitY=1.025;exitDx=0;exitDy=0;exitPerimeter=0;" parent="WIyWlLk6GJQsqaUBKTNV-1" source="WIyWlLk6GJQsqaUBKTNV-11" edge="1">
          <mxGeometry x="0.2188" width="160" relative="1" as="geometry">
            <mxPoint x="678.25" y="565" as="sourcePoint" />
            <mxPoint x="598" y="585" as="targetPoint" />
            <Array as="points">
              <mxPoint x="698" y="585" />
            </Array>
            <mxPoint as="offset" />
          </mxGeometry>
        </mxCell>
        <mxCell id="enNSre5mIDpdEpU6eGM5-63" value="" style="html=1;verticalAlign=bottom;labelBackgroundColor=none;endArrow=oval;endFill=0;endSize=8;rounded=0;" parent="WIyWlLk6GJQsqaUBKTNV-1" edge="1">
          <mxGeometry x="0.2857" width="160" relative="1" as="geometry">
            <mxPoint x="462.75" y="605" as="sourcePoint" />
            <mxPoint x="362.75" y="645" as="targetPoint" />
            <Array as="points">
              <mxPoint x="462.75" y="645" />
            </Array>
            <mxPoint as="offset" />
          </mxGeometry>
        </mxCell>
        <mxCell id="enNSre5mIDpdEpU6eGM5-64" value="INDIRIZZO" style="html=1;verticalAlign=bottom;labelBackgroundColor=none;endArrow=oval;endFill=0;endSize=8;rounded=0;exitX=0.75;exitY=1;exitDx=0;exitDy=0;" parent="WIyWlLk6GJQsqaUBKTNV-1" source="WIyWlLk6GJQsqaUBKTNV-12" edge="1">
          <mxGeometry x="0.2727" width="160" relative="1" as="geometry">
            <mxPoint x="476.75" y="616" as="sourcePoint" />
            <mxPoint x="562.75" y="626" as="targetPoint" />
            <Array as="points">
              <mxPoint x="473.75" y="626" />
            </Array>
            <mxPoint as="offset" />
          </mxGeometry>
        </mxCell>
        <mxCell id="enNSre5mIDpdEpU6eGM5-65" value="TIPO&amp;nbsp;&lt;div&gt;ASSICURAZIONE&lt;/div&gt;" style="html=1;verticalAlign=bottom;labelBackgroundColor=none;endArrow=oval;endFill=0;endSize=8;rounded=0;exitX=0.5;exitY=0;exitDx=0;exitDy=0;" parent="WIyWlLk6GJQsqaUBKTNV-1" source="enNSre5mIDpdEpU6eGM5-16" edge="1">
          <mxGeometry x="0.2188" y="2" width="160" relative="1" as="geometry">
            <mxPoint x="737.25" y="120" as="sourcePoint" />
            <mxPoint x="819.25" y="93" as="targetPoint" />
            <Array as="points">
              <mxPoint x="719.25" y="93" />
            </Array>
            <mxPoint as="offset" />
          </mxGeometry>
        </mxCell>
        <mxCell id="enNSre5mIDpdEpU6eGM5-66" value="TIPO CARTA&amp;nbsp;" style="html=1;verticalAlign=bottom;labelBackgroundColor=none;endArrow=oval;endFill=0;endSize=8;rounded=0;exitX=0.865;exitY=-0.05;exitDx=0;exitDy=0;exitPerimeter=0;" parent="WIyWlLk6GJQsqaUBKTNV-1" edge="1">
          <mxGeometry x="0.1927" width="160" relative="1" as="geometry">
            <mxPoint x="931.25" y="121" as="sourcePoint" />
            <mxPoint x="1019.25" y="101" as="targetPoint" />
            <Array as="points">
              <mxPoint x="931.25" y="101" />
            </Array>
            <mxPoint as="offset" />
          </mxGeometry>
        </mxCell>
        <mxCell id="enNSre5mIDpdEpU6eGM5-68" value="INDIRIZZO" style="html=1;verticalAlign=bottom;labelBackgroundColor=none;endArrow=oval;endFill=0;endSize=8;rounded=0;exitX=0.56;exitY=1;exitDx=0;exitDy=0;exitPerimeter=0;" parent="WIyWlLk6GJQsqaUBKTNV-1" edge="1">
          <mxGeometry x="0.2537" width="160" relative="1" as="geometry">
            <mxPoint x="727.25" y="566" as="sourcePoint" />
            <mxPoint x="822" y="605" as="targetPoint" />
            <Array as="points">
              <mxPoint x="727" y="605" />
            </Array>
            <mxPoint as="offset" />
          </mxGeometry>
        </mxCell>
        <mxCell id="enNSre5mIDpdEpU6eGM5-69" value="DIMENSIONI" style="html=1;verticalAlign=bottom;labelBackgroundColor=none;endArrow=oval;endFill=0;endSize=8;rounded=0;exitX=0.865;exitY=-0.05;exitDx=0;exitDy=0;exitPerimeter=0;" parent="WIyWlLk6GJQsqaUBKTNV-1" edge="1">
          <mxGeometry x="0.2309" y="1" width="160" relative="1" as="geometry">
            <mxPoint x="755.05" y="300" as="sourcePoint" />
            <mxPoint x="831" y="259" as="targetPoint" />
            <Array as="points">
              <mxPoint x="755" y="259" />
            </Array>
            <mxPoint as="offset" />
          </mxGeometry>
        </mxCell>
        <mxCell id="enNSre5mIDpdEpU6eGM5-70" value="DATAORDINE" style="html=1;verticalAlign=bottom;labelBackgroundColor=none;endArrow=oval;endFill=0;endSize=8;rounded=0;exitX=0.906;exitY=0.975;exitDx=0;exitDy=0;exitPerimeter=0;" parent="WIyWlLk6GJQsqaUBKTNV-1" edge="1">
          <mxGeometry x="0.2309" y="1" width="160" relative="1" as="geometry">
            <mxPoint x="767.97" y="339" as="sourcePoint" />
            <mxPoint x="844" y="357" as="targetPoint" />
            <Array as="points">
              <mxPoint x="768" y="357" />
            </Array>
            <mxPoint as="offset" />
          </mxGeometry>
        </mxCell>
        <mxCell id="enNSre5mIDpdEpU6eGM5-72" value="DATAPREVISTA" style="html=1;verticalAlign=bottom;labelBackgroundColor=none;endArrow=oval;endFill=0;endSize=8;rounded=0;exitX=0.75;exitY=1;exitDx=0;exitDy=0;" parent="WIyWlLk6GJQsqaUBKTNV-1" edge="1">
          <mxGeometry x="0.3333" width="160" relative="1" as="geometry">
            <mxPoint x="760.25" y="339" as="sourcePoint" />
            <mxPoint x="860" y="389" as="targetPoint" />
            <Array as="points">
              <mxPoint x="760" y="389" />
            </Array>
            <mxPoint as="offset" />
          </mxGeometry>
        </mxCell>
        <mxCell id="enNSre5mIDpdEpU6eGM5-73" value="TIPOLOGIA" style="html=1;verticalAlign=bottom;labelBackgroundColor=none;endArrow=oval;endFill=0;endSize=8;rounded=0;exitX=0.25;exitY=0;exitDx=0;exitDy=0;" parent="WIyWlLk6GJQsqaUBKTNV-1" source="WIyWlLk6GJQsqaUBKTNV-3" edge="1">
          <mxGeometry x="0.3333" width="160" relative="1" as="geometry">
            <mxPoint x="490.25" y="199" as="sourcePoint" />
            <mxPoint x="590" y="269" as="targetPoint" />
            <Array as="points">
              <mxPoint x="689" y="269" />
            </Array>
            <mxPoint as="offset" />
          </mxGeometry>
        </mxCell>
        <mxCell id="enNSre5mIDpdEpU6eGM5-75" value="DISPONIBILITÀ" style="html=1;verticalAlign=bottom;labelBackgroundColor=none;endArrow=oval;endFill=0;endSize=8;rounded=0;" parent="WIyWlLk6GJQsqaUBKTNV-1" edge="1">
          <mxGeometry x="0.4444" width="160" relative="1" as="geometry">
            <mxPoint x="983" y="563" as="sourcePoint" />
            <mxPoint x="1078" y="588" as="targetPoint" />
            <Array as="points">
              <mxPoint x="983" y="588" />
              <mxPoint x="1030" y="588" />
            </Array>
            <mxPoint as="offset" />
          </mxGeometry>
        </mxCell>
        <mxCell id="enNSre5mIDpdEpU6eGM5-77" value="NOTE" style="html=1;verticalAlign=bottom;labelBackgroundColor=none;endArrow=oval;endFill=0;endSize=8;rounded=0;exitX=0.56;exitY=1;exitDx=0;exitDy=0;exitPerimeter=0;" parent="WIyWlLk6GJQsqaUBKTNV-1" edge="1">
          <mxGeometry x="0.4444" width="160" relative="1" as="geometry">
            <mxPoint x="254.50000000000006" y="438" as="sourcePoint" />
            <mxPoint x="148.25" y="487" as="targetPoint" />
            <Array as="points">
              <mxPoint x="254.25" y="487" />
            </Array>
            <mxPoint as="offset" />
          </mxGeometry>
        </mxCell>
        <mxCell id="enNSre5mIDpdEpU6eGM5-78" value="COGNOME" style="html=1;verticalAlign=bottom;labelBackgroundColor=none;endArrow=oval;endFill=0;endSize=8;rounded=0;exitX=0.56;exitY=1;exitDx=0;exitDy=0;exitPerimeter=0;" parent="WIyWlLk6GJQsqaUBKTNV-1" edge="1">
          <mxGeometry x="0.2537" width="160" relative="1" as="geometry">
            <mxPoint x="710.25" y="567" as="sourcePoint" />
            <mxPoint x="598" y="606" as="targetPoint" />
            <Array as="points">
              <mxPoint x="710" y="606" />
            </Array>
            <mxPoint as="offset" />
          </mxGeometry>
        </mxCell>
        <mxCell id="ISllK72JEmzfFJMBBq4i-0" value="DEDICA" style="html=1;verticalAlign=bottom;labelBackgroundColor=none;endArrow=oval;endFill=0;endSize=8;rounded=0;exitX=0.75;exitY=0;exitDx=0;exitDy=0;" parent="WIyWlLk6GJQsqaUBKTNV-1" source="enNSre5mIDpdEpU6eGM5-17" edge="1">
          <mxGeometry x="0.1927" width="160" relative="1" as="geometry">
            <mxPoint x="911" y="94" as="sourcePoint" />
            <mxPoint x="999" y="74" as="targetPoint" />
            <Array as="points">
              <mxPoint x="911" y="74" />
            </Array>
            <mxPoint as="offset" />
          </mxGeometry>
        </mxCell>
        <mxCell id="ISllK72JEmzfFJMBBq4i-2" value="CONTIENE" style="rhombus;whiteSpace=wrap;html=1;rounded=1;glass=0;strokeWidth=1;shadow=0;" parent="WIyWlLk6GJQsqaUBKTNV-1" vertex="1">
          <mxGeometry x="385" y="149" width="90" height="90" as="geometry" />
        </mxCell>
        <mxCell id="ISllK72JEmzfFJMBBq4i-10" value="(2,N)" style="text;strokeColor=none;align=center;fillColor=none;html=1;verticalAlign=middle;whiteSpace=wrap;rounded=0;" parent="WIyWlLk6GJQsqaUBKTNV-1" vertex="1">
          <mxGeometry x="449" y="141" width="60" height="30" as="geometry" />
        </mxCell>
        <mxCell id="ISllK72JEmzfFJMBBq4i-11" value="(1,1)" style="text;strokeColor=none;align=center;fillColor=none;html=1;verticalAlign=middle;whiteSpace=wrap;rounded=0;" parent="WIyWlLk6GJQsqaUBKTNV-1" vertex="1">
          <mxGeometry x="597.25" y="322" width="60" height="30" as="geometry" />
        </mxCell>
        <mxCell id="SRPe6zvYWXh04PvRG5ib-1" value="" style="endArrow=none;html=1;rounded=0;entryX=0.5;entryY=1;entryDx=0;entryDy=0;exitX=0;exitY=0.25;exitDx=0;exitDy=0;" parent="WIyWlLk6GJQsqaUBKTNV-1" source="WIyWlLk6GJQsqaUBKTNV-3" target="ISllK72JEmzfFJMBBq4i-2" edge="1">
          <mxGeometry width="50" height="50" relative="1" as="geometry">
            <mxPoint x="375.75" y="284" as="sourcePoint" />
            <mxPoint x="425.75" y="234" as="targetPoint" />
            <Array as="points">
              <mxPoint x="430" y="309" />
            </Array>
          </mxGeometry>
        </mxCell>
        <mxCell id="SRPe6zvYWXh04PvRG5ib-3" value="" style="endArrow=none;html=1;rounded=0;entryX=1;entryY=0;entryDx=0;entryDy=0;exitX=0.5;exitY=0;exitDx=0;exitDy=0;" parent="WIyWlLk6GJQsqaUBKTNV-1" source="enNSre5mIDpdEpU6eGM5-12" target="ISllK72JEmzfFJMBBq4i-11" edge="1">
          <mxGeometry width="50" height="50" relative="1" as="geometry">
            <mxPoint x="548" y="354" as="sourcePoint" />
            <mxPoint x="319" y="284" as="targetPoint" />
            <Array as="points">
              <mxPoint x="479" y="322" />
            </Array>
          </mxGeometry>
        </mxCell>
        <mxCell id="SRPe6zvYWXh04PvRG5ib-4" value="" style="endArrow=none;html=1;rounded=0;entryX=0.496;entryY=1;entryDx=0;entryDy=0;exitX=0.5;exitY=0;exitDx=0;exitDy=0;entryPerimeter=0;" parent="WIyWlLk6GJQsqaUBKTNV-1" source="enNSre5mIDpdEpU6eGM5-30" target="enNSre5mIDpdEpU6eGM5-0" edge="1">
          <mxGeometry width="50" height="50" relative="1" as="geometry">
            <mxPoint x="340.75" y="790" as="sourcePoint" />
            <mxPoint x="518.75" y="715" as="targetPoint" />
            <Array as="points" />
          </mxGeometry>
        </mxCell>
        <mxCell id="SRPe6zvYWXh04PvRG5ib-5" value="" style="endArrow=none;html=1;rounded=0;entryX=0;entryY=0.5;entryDx=0;entryDy=0;exitX=1;exitY=0.5;exitDx=0;exitDy=0;" parent="WIyWlLk6GJQsqaUBKTNV-1" source="enNSre5mIDpdEpU6eGM5-0" edge="1">
          <mxGeometry width="50" height="50" relative="1" as="geometry">
            <mxPoint x="478" y="505" as="sourcePoint" />
            <mxPoint x="437.75" y="419" as="targetPoint" />
            <Array as="points" />
          </mxGeometry>
        </mxCell>
        <mxCell id="SRPe6zvYWXh04PvRG5ib-6" value="" style="endArrow=none;html=1;rounded=0;entryX=1;entryY=0.5;entryDx=0;entryDy=0;exitX=0;exitY=0.5;exitDx=0;exitDy=0;" parent="WIyWlLk6GJQsqaUBKTNV-1" source="WIyWlLk6GJQsqaUBKTNV-12" edge="1">
          <mxGeometry width="50" height="50" relative="1" as="geometry">
            <mxPoint x="595.14" y="720" as="sourcePoint" />
            <mxPoint x="294.5" y="586" as="targetPoint" />
            <Array as="points" />
          </mxGeometry>
        </mxCell>
        <mxCell id="SRPe6zvYWXh04PvRG5ib-7" value="" style="endArrow=none;html=1;rounded=0;entryX=0.5;entryY=1;entryDx=0;entryDy=0;exitX=0.5;exitY=0;exitDx=0;exitDy=0;" parent="WIyWlLk6GJQsqaUBKTNV-1" source="WIyWlLk6GJQsqaUBKTNV-7" target="enNSre5mIDpdEpU6eGM5-4" edge="1">
          <mxGeometry width="50" height="50" relative="1" as="geometry">
            <mxPoint x="873" y="535" as="sourcePoint" />
            <mxPoint x="873" y="463" as="targetPoint" />
            <Array as="points" />
          </mxGeometry>
        </mxCell>
        <mxCell id="SRPe6zvYWXh04PvRG5ib-9" value="" style="endArrow=none;html=1;rounded=0;entryX=0.5;entryY=1;entryDx=0;entryDy=0;exitX=0.5;exitY=0;exitDx=0;exitDy=0;" parent="WIyWlLk6GJQsqaUBKTNV-1" source="WIyWlLk6GJQsqaUBKTNV-11" target="enNSre5mIDpdEpU6eGM5-9" edge="1">
          <mxGeometry width="50" height="50" relative="1" as="geometry">
            <mxPoint x="718.19" y="523" as="sourcePoint" />
            <mxPoint x="718.19" y="455" as="targetPoint" />
            <Array as="points" />
          </mxGeometry>
        </mxCell>
        <mxCell id="SRPe6zvYWXh04PvRG5ib-10" value="" style="endArrow=none;html=1;rounded=0;entryX=0.885;entryY=0.007;entryDx=0;entryDy=0;exitX=0.5;exitY=0;exitDx=0;exitDy=0;entryPerimeter=0;" parent="WIyWlLk6GJQsqaUBKTNV-1" source="enNSre5mIDpdEpU6eGM5-9" target="enNSre5mIDpdEpU6eGM5-40" edge="1">
          <mxGeometry width="50" height="50" relative="1" as="geometry">
            <mxPoint x="730" y="417" as="sourcePoint" />
            <mxPoint x="730" y="346" as="targetPoint" />
            <Array as="points" />
          </mxGeometry>
        </mxCell>
        <mxCell id="SRPe6zvYWXh04PvRG5ib-11" value="" style="endArrow=none;html=1;rounded=0;entryX=0.5;entryY=0;entryDx=0;entryDy=0;exitX=1;exitY=0.5;exitDx=0;exitDy=0;" parent="WIyWlLk6GJQsqaUBKTNV-1" source="WIyWlLk6GJQsqaUBKTNV-3" target="enNSre5mIDpdEpU6eGM5-4" edge="1">
          <mxGeometry width="50" height="50" relative="1" as="geometry">
            <mxPoint x="910.25" y="284" as="sourcePoint" />
            <mxPoint x="1088.25" y="209" as="targetPoint" />
            <Array as="points">
              <mxPoint x="959" y="319" />
            </Array>
          </mxGeometry>
        </mxCell>
        <mxCell id="SRPe6zvYWXh04PvRG5ib-12" value="" style="endArrow=none;html=1;rounded=0;entryX=0.5;entryY=1;entryDx=0;entryDy=0;exitX=0.5;exitY=0;exitDx=0;exitDy=0;" parent="WIyWlLk6GJQsqaUBKTNV-1" source="enNSre5mIDpdEpU6eGM5-1" edge="1">
          <mxGeometry width="50" height="50" relative="1" as="geometry">
            <mxPoint x="959" y="631" as="sourcePoint" />
            <mxPoint x="959" y="563" as="targetPoint" />
            <Array as="points" />
          </mxGeometry>
        </mxCell>
        <mxCell id="SRPe6zvYWXh04PvRG5ib-13" value="" style="endArrow=none;html=1;rounded=0;entryX=0.75;entryY=0;entryDx=0;entryDy=0;exitX=0.5;exitY=0;exitDx=0;exitDy=0;" parent="WIyWlLk6GJQsqaUBKTNV-1" target="ISllK72JEmzfFJMBBq4i-10" edge="1">
          <mxGeometry width="50" height="50" relative="1" as="geometry">
            <mxPoint x="430.25" y="171" as="sourcePoint" />
            <mxPoint x="429.69" y="94" as="targetPoint" />
            <Array as="points">
              <mxPoint x="429.25" y="141" />
            </Array>
          </mxGeometry>
        </mxCell>
        <mxCell id="SRPe6zvYWXh04PvRG5ib-14" value="" style="endArrow=none;html=1;rounded=0;entryX=1;entryY=0.5;entryDx=0;entryDy=0;exitX=0;exitY=0.5;exitDx=0;exitDy=0;" parent="WIyWlLk6GJQsqaUBKTNV-1" source="enNSre5mIDpdEpU6eGM5-1" target="WIyWlLk6GJQsqaUBKTNV-12" edge="1">
          <mxGeometry width="50" height="50" relative="1" as="geometry">
            <mxPoint x="945" y="787" as="sourcePoint" />
            <mxPoint x="804" y="787" as="targetPoint" />
            <Array as="points">
              <mxPoint x="580" y="630" />
              <mxPoint x="578" y="585" />
            </Array>
          </mxGeometry>
        </mxCell>
        <mxCell id="SRPe6zvYWXh04PvRG5ib-15" value="PACCO" style="rounded=1;whiteSpace=wrap;html=1;fontSize=12;glass=0;strokeWidth=1;shadow=0;" parent="WIyWlLk6GJQsqaUBKTNV-1" vertex="1">
          <mxGeometry x="659.25" y="299" width="120" height="40" as="geometry" />
        </mxCell>
        <mxCell id="SRPe6zvYWXh04PvRG5ib-16" value="CORRIERE" style="rounded=1;whiteSpace=wrap;html=1;fontSize=12;glass=0;strokeWidth=1;shadow=0;" parent="WIyWlLk6GJQsqaUBKTNV-1" vertex="1">
          <mxGeometry x="899.25" y="523" width="120" height="40" as="geometry" />
        </mxCell>
        <mxCell id="SRPe6zvYWXh04PvRG5ib-17" value="CLIENTE" style="rounded=1;whiteSpace=wrap;html=1;fontSize=12;glass=0;strokeWidth=1;shadow=0;" parent="WIyWlLk6GJQsqaUBKTNV-1" vertex="1">
          <mxGeometry x="658.75" y="526" width="120" height="40" as="geometry" />
        </mxCell>
        <mxCell id="SRPe6zvYWXh04PvRG5ib-18" value="FILIALE" style="rounded=1;whiteSpace=wrap;html=1;fontSize=12;glass=0;strokeWidth=1;shadow=0;" parent="WIyWlLk6GJQsqaUBKTNV-1" vertex="1">
          <mxGeometry x="383.5" y="565" width="120" height="40" as="geometry" />
        </mxCell>
        <mxCell id="SRPe6zvYWXh04PvRG5ib-21" value="CONSEGNA" style="rhombus;whiteSpace=wrap;html=1;rounded=1;glass=0;strokeWidth=1;shadow=0;" parent="WIyWlLk6GJQsqaUBKTNV-1" vertex="1">
          <mxGeometry x="919.25" y="375" width="80" height="80" as="geometry" />
        </mxCell>
        <mxCell id="SRPe6zvYWXh04PvRG5ib-22" value="ORDINE" style="rhombus;whiteSpace=wrap;html=1;rounded=1;glass=0;strokeWidth=1;shadow=0;" parent="WIyWlLk6GJQsqaUBKTNV-1" vertex="1">
          <mxGeometry x="678.75" y="375" width="80" height="80" as="geometry" />
        </mxCell>
        <mxCell id="SRPe6zvYWXh04PvRG5ib-24" value="BUNDLE" style="rounded=1;whiteSpace=wrap;html=1;fontSize=12;glass=0;strokeWidth=1;shadow=0;" parent="WIyWlLk6GJQsqaUBKTNV-1" vertex="1">
          <mxGeometry x="500" y="121" width="120" height="40" as="geometry" />
        </mxCell>
        <mxCell id="SRPe6zvYWXh04PvRG5ib-25" value="PACCHI ASSICURATI" style="rounded=1;whiteSpace=wrap;html=1;fontSize=12;glass=0;strokeWidth=1;shadow=0;" parent="WIyWlLk6GJQsqaUBKTNV-1" vertex="1">
          <mxGeometry x="660" y="121" width="120" height="40" as="geometry" />
        </mxCell>
        <mxCell id="SRPe6zvYWXh04PvRG5ib-26" value="PACCHI REGALO" style="rounded=1;whiteSpace=wrap;html=1;fontSize=12;glass=0;strokeWidth=1;shadow=0;" parent="WIyWlLk6GJQsqaUBKTNV-1" vertex="1">
          <mxGeometry x="820" y="121" width="120" height="40" as="geometry" />
        </mxCell>
        <mxCell id="SRPe6zvYWXh04PvRG5ib-35" value="(1,1)" style="text;strokeColor=none;align=center;fillColor=none;html=1;verticalAlign=middle;whiteSpace=wrap;rounded=0;" parent="WIyWlLk6GJQsqaUBKTNV-1" vertex="1">
          <mxGeometry x="799.25" y="289" width="60" height="30" as="geometry" />
        </mxCell>
        <mxCell id="SRPe6zvYWXh04PvRG5ib-36" value="TRANSITO" style="rhombus;whiteSpace=wrap;html=1;rounded=1;glass=0;strokeWidth=1;shadow=0;" parent="WIyWlLk6GJQsqaUBKTNV-1" vertex="1">
          <mxGeometry x="248.5" y="543" width="80" height="80" as="geometry" />
        </mxCell>
        <mxCell id="SRPe6zvYWXh04PvRG5ib-71" value="CONTIENE" style="rhombus;whiteSpace=wrap;html=1;rounded=1;glass=0;strokeWidth=1;shadow=0;" parent="WIyWlLk6GJQsqaUBKTNV-1" vertex="1">
          <mxGeometry x="385" y="149" width="90" height="90" as="geometry" />
        </mxCell>
        <mxCell id="SRPe6zvYWXh04PvRG5ib-79" value="" style="endArrow=none;html=1;rounded=0;entryX=0.5;entryY=1;entryDx=0;entryDy=0;exitX=0.5;exitY=0;exitDx=0;exitDy=0;" parent="WIyWlLk6GJQsqaUBKTNV-1" source="SRPe6zvYWXh04PvRG5ib-16" target="SRPe6zvYWXh04PvRG5ib-21" edge="1">
          <mxGeometry width="50" height="50" relative="1" as="geometry">
            <mxPoint x="873" y="535" as="sourcePoint" />
            <mxPoint x="873" y="463" as="targetPoint" />
            <Array as="points" />
          </mxGeometry>
        </mxCell>
        <mxCell id="SRPe6zvYWXh04PvRG5ib-88" value="CITTÀ" style="text;html=1;align=center;verticalAlign=middle;resizable=0;points=[];autosize=1;strokeColor=none;fillColor=none;" parent="WIyWlLk6GJQsqaUBKTNV-1" vertex="1">
          <mxGeometry x="403.25" y="622" width="60" height="30" as="geometry" />
        </mxCell>
        <mxCell id="SRPe6zvYWXh04PvRG5ib-89" value="" style="html=1;verticalAlign=bottom;labelBackgroundColor=none;endArrow=oval;endFill=0;endSize=8;rounded=0;exitX=0.987;exitY=0.198;exitDx=0;exitDy=0;exitPerimeter=0;" parent="WIyWlLk6GJQsqaUBKTNV-1" source="SRPe6zvYWXh04PvRG5ib-92" edge="1">
          <mxGeometry x="0.0588" y="21" width="160" relative="1" as="geometry">
            <mxPoint x="448" y="602" as="sourcePoint" />
            <mxPoint x="362.75" y="623" as="targetPoint" />
            <Array as="points">
              <mxPoint x="448" y="623" />
            </Array>
            <mxPoint as="offset" />
          </mxGeometry>
        </mxCell>
        <mxCell id="SRPe6zvYWXh04PvRG5ib-92" value="NOME" style="text;html=1;align=center;verticalAlign=middle;resizable=0;points=[];autosize=1;strokeColor=none;fillColor=none;" parent="WIyWlLk6GJQsqaUBKTNV-1" vertex="1">
          <mxGeometry x="388.75" y="601" width="60" height="30" as="geometry" />
        </mxCell>
        <mxCell id="SRPe6zvYWXh04PvRG5ib-93" value="" style="endArrow=none;html=1;rounded=0;align=center;verticalAlign=top;endFill=0;labelBackgroundColor=none;endSize=6;startArrow=oval;startFill=1;" parent="WIyWlLk6GJQsqaUBKTNV-1" edge="1">
          <mxGeometry relative="1" as="geometry">
            <mxPoint x="417.75" y="676" as="sourcePoint" />
            <mxPoint x="377.75" y="596" as="targetPoint" />
            <Array as="points">
              <mxPoint x="377.75" y="676" />
            </Array>
          </mxGeometry>
        </mxCell>
        <mxCell id="SRPe6zvYWXh04PvRG5ib-94" value="(0,1)" style="text;strokeColor=none;align=center;fillColor=none;html=1;verticalAlign=middle;whiteSpace=wrap;rounded=0;" parent="WIyWlLk6GJQsqaUBKTNV-1" vertex="1">
          <mxGeometry x="797" y="560" width="60" height="30" as="geometry" />
        </mxCell>
        <mxCell id="SRPe6zvYWXh04PvRG5ib-97" value="(0,1)" style="text;strokeColor=none;align=center;fillColor=none;html=1;verticalAlign=middle;whiteSpace=wrap;rounded=0;" parent="WIyWlLk6GJQsqaUBKTNV-1" vertex="1">
          <mxGeometry x="203.25" y="459" width="60" height="30" as="geometry" />
        </mxCell>
        <mxCell id="6jNoC1_315bEDyPlJSjg-0" value="TIPO" style="html=1;verticalAlign=bottom;labelBackgroundColor=none;endArrow=oval;endFill=0;endSize=8;rounded=0;exitX=0.702;exitY=0.975;exitDx=0;exitDy=0;exitPerimeter=0;" parent="WIyWlLk6GJQsqaUBKTNV-1" source="SRPe6zvYWXh04PvRG5ib-18" edge="1">
          <mxGeometry x="0.2727" width="160" relative="1" as="geometry">
            <mxPoint x="468" y="626.5" as="sourcePoint" />
            <mxPoint x="557" y="647.5" as="targetPoint" />
            <Array as="points">
              <mxPoint x="468" y="647.5" />
            </Array>
            <mxPoint as="offset" />
          </mxGeometry>
        </mxCell>
        <mxCell id="fHOUalI1GEftPoODLYIz-0" value="PACCHIATTIVI" style="html=1;verticalAlign=bottom;labelBackgroundColor=none;endArrow=oval;endFill=0;endSize=8;rounded=0;entryX=1;entryY=1;entryDx=0;entryDy=0;exitX=0;exitY=0.75;exitDx=0;exitDy=0;" parent="WIyWlLk6GJQsqaUBKTNV-1" source="enNSre5mIDpdEpU6eGM5-26" edge="1">
          <mxGeometry x="-0.0576" y="3" width="160" relative="1" as="geometry">
            <mxPoint x="899.25" y="485" as="sourcePoint" />
            <mxPoint x="820.25" y="511" as="targetPoint" />
            <Array as="points">
              <mxPoint x="899.25" y="510" />
            </Array>
            <mxPoint as="offset" />
          </mxGeometry>
        </mxCell>
        <mxCell id="CMeHQbp2Azw9eBpZAwYB-0" value="ATTUALE" style="html=1;verticalAlign=bottom;labelBackgroundColor=none;endArrow=oval;endFill=0;endSize=8;rounded=0;" parent="WIyWlLk6GJQsqaUBKTNV-1" edge="1">
          <mxGeometry x="0.2842" width="160" relative="1" as="geometry">
            <mxPoint x="984" y="650" as="sourcePoint" />
            <mxPoint x="1054" y="675" as="targetPoint" />
            <Array as="points">
              <mxPoint x="984" y="675" />
              <mxPoint x="1031" y="675" />
            </Array>
            <mxPoint as="offset" />
          </mxGeometry>
        </mxCell>
        <mxCell id="CMeHQbp2Azw9eBpZAwYB-1" value="QUANTITÀ" style="html=1;verticalAlign=bottom;labelBackgroundColor=none;endArrow=oval;endFill=0;endSize=8;rounded=0;" parent="WIyWlLk6GJQsqaUBKTNV-1" edge="1">
          <mxGeometry x="0.2842" width="160" relative="1" as="geometry">
            <mxPoint x="403" y="214" as="sourcePoint" />
            <mxPoint x="341" y="239" as="targetPoint" />
            <Array as="points">
              <mxPoint x="403" y="239" />
            </Array>
            <mxPoint as="offset" />
          </mxGeometry>
        </mxCell>
      </root>
    </mxGraphModel>
  </diagram>
  <diagram id="GPyr6cOvjwJ95OgjQDgK" name="Page-2">
    <mxGraphModel dx="1656" dy="829" grid="0" gridSize="10" guides="1" tooltips="1" connect="1" arrows="1" fold="1" page="1" pageScale="1" pageWidth="3300" pageHeight="4681" math="0" shadow="0">
      <root>
        <mxCell id="0" />
        <mxCell id="1" parent="0" />
        <mxCell id="DlnxyM36pk9Y2z0GFzbo-1" value="PACCHI" style="rounded=1;whiteSpace=wrap;html=1;fontSize=12;glass=0;strokeWidth=1;shadow=0;" parent="1" vertex="1">
          <mxGeometry x="665.25" y="300" width="120" height="40" as="geometry" />
        </mxCell>
        <mxCell id="DlnxyM36pk9Y2z0GFzbo-2" value="CORRIERE" style="rounded=1;whiteSpace=wrap;html=1;fontSize=12;glass=0;strokeWidth=1;shadow=0;" parent="1" vertex="1">
          <mxGeometry x="1031" y="420" width="120" height="40" as="geometry" />
        </mxCell>
        <mxCell id="DlnxyM36pk9Y2z0GFzbo-3" value="CLIENTE" style="rounded=1;whiteSpace=wrap;html=1;fontSize=12;glass=0;strokeWidth=1;shadow=0;" parent="1" vertex="1">
          <mxGeometry x="665.75" y="551" width="120" height="40" as="geometry" />
        </mxCell>
        <mxCell id="DlnxyM36pk9Y2z0GFzbo-4" value="FILIALE" style="rounded=1;whiteSpace=wrap;html=1;fontSize=12;glass=0;strokeWidth=1;shadow=0;" parent="1" vertex="1">
          <mxGeometry x="389.75" y="562" width="120" height="40" as="geometry" />
        </mxCell>
        <mxCell id="DlnxyM36pk9Y2z0GFzbo-5" value="TRACKING" style="rounded=1;whiteSpace=wrap;html=1;fontSize=12;glass=0;strokeWidth=1;shadow=0;" parent="1" vertex="1">
          <mxGeometry x="244.5" y="413" width="120" height="40" as="geometry" />
        </mxCell>
        <mxCell id="DlnxyM36pk9Y2z0GFzbo-6" value="SEDE" style="rhombus;whiteSpace=wrap;html=1;shadow=0;fontFamily=Helvetica;fontSize=12;align=center;strokeWidth=1;spacing=6;spacingTop=-4;" parent="1" vertex="1">
          <mxGeometry x="916.25" y="539" width="100" height="80" as="geometry" />
        </mxCell>
        <mxCell id="DlnxyM36pk9Y2z0GFzbo-7" value="CONSEGNA" style="rhombus;whiteSpace=wrap;html=1;rounded=1;glass=0;strokeWidth=1;shadow=0;" parent="1" vertex="1">
          <mxGeometry x="877" y="400" width="80" height="80" as="geometry" />
        </mxCell>
        <mxCell id="DlnxyM36pk9Y2z0GFzbo-8" value="ORDINE" style="rhombus;whiteSpace=wrap;html=1;rounded=1;glass=0;strokeWidth=1;shadow=0;" parent="1" vertex="1">
          <mxGeometry x="685.75" y="400" width="80" height="80" as="geometry" />
        </mxCell>
        <mxCell id="DlnxyM36pk9Y2z0GFzbo-17" value="(0,N)" style="text;strokeColor=none;align=center;fillColor=none;html=1;verticalAlign=middle;whiteSpace=wrap;rounded=0;" parent="1" vertex="1">
          <mxGeometry x="573.25" y="285" width="60" height="30" as="geometry" />
        </mxCell>
        <mxCell id="DlnxyM36pk9Y2z0GFzbo-18" value="(0,N)" style="text;strokeColor=none;align=center;fillColor=none;html=1;verticalAlign=middle;whiteSpace=wrap;rounded=0;" parent="1" vertex="1">
          <mxGeometry x="977" y="411" width="60" height="30" as="geometry" />
        </mxCell>
        <mxCell id="DlnxyM36pk9Y2z0GFzbo-21" value="(1,1)" style="text;strokeColor=none;align=center;fillColor=none;html=1;verticalAlign=middle;whiteSpace=wrap;rounded=0;" parent="1" vertex="1">
          <mxGeometry x="805.25" y="290" width="60" height="30" as="geometry" />
        </mxCell>
        <mxCell id="DlnxyM36pk9Y2z0GFzbo-22" value="TRANSITO" style="rhombus;whiteSpace=wrap;html=1;rounded=1;glass=0;strokeWidth=1;shadow=0;" parent="1" vertex="1">
          <mxGeometry x="264.5" y="542" width="80" height="80" as="geometry" />
        </mxCell>
        <mxCell id="DlnxyM36pk9Y2z0GFzbo-23" value="(1,1)" style="text;strokeColor=none;align=center;fillColor=none;html=1;verticalAlign=middle;whiteSpace=wrap;rounded=0;" parent="1" vertex="1">
          <mxGeometry x="294.25" y="454" width="60" height="30" as="geometry" />
        </mxCell>
        <mxCell id="DlnxyM36pk9Y2z0GFzbo-24" value="(1,N)" style="text;strokeColor=none;align=center;fillColor=none;html=1;verticalAlign=middle;whiteSpace=wrap;rounded=0;" parent="1" vertex="1">
          <mxGeometry x="332" y="555" width="60" height="30" as="geometry" />
        </mxCell>
        <mxCell id="DlnxyM36pk9Y2z0GFzbo-25" value="(1,N)" style="text;strokeColor=none;align=center;fillColor=none;html=1;verticalAlign=middle;whiteSpace=wrap;rounded=0;" parent="1" vertex="1">
          <mxGeometry x="1023" y="460" width="60" height="30" as="geometry" />
        </mxCell>
        <mxCell id="DlnxyM36pk9Y2z0GFzbo-26" value="(1,N)" style="text;strokeColor=none;align=center;fillColor=none;html=1;verticalAlign=middle;whiteSpace=wrap;rounded=0;" parent="1" vertex="1">
          <mxGeometry x="503.25" y="558" width="60" height="30" as="geometry" />
        </mxCell>
        <mxCell id="DlnxyM36pk9Y2z0GFzbo-27" value="(0,N)" style="text;strokeColor=none;align=center;fillColor=none;html=1;verticalAlign=middle;whiteSpace=wrap;rounded=0;" parent="1" vertex="1">
          <mxGeometry x="670.25" y="523" width="60" height="30" as="geometry" />
        </mxCell>
        <mxCell id="DlnxyM36pk9Y2z0GFzbo-29" value="(1,1)" style="text;strokeColor=none;align=center;fillColor=none;html=1;verticalAlign=middle;whiteSpace=wrap;rounded=0;" parent="1" vertex="1">
          <mxGeometry x="672.25" y="339" width="60" height="30" as="geometry" />
        </mxCell>
        <mxCell id="DlnxyM36pk9Y2z0GFzbo-31" value="AGENZIA" style="html=1;verticalAlign=bottom;labelBackgroundColor=none;endArrow=oval;endFill=0;endSize=8;rounded=0;" parent="1" edge="1">
          <mxGeometry x="-0.0312" width="160" relative="1" as="geometry">
            <mxPoint x="1151" y="429" as="sourcePoint" />
            <mxPoint x="1231" y="429" as="targetPoint" />
            <mxPoint as="offset" />
          </mxGeometry>
        </mxCell>
        <mxCell id="DlnxyM36pk9Y2z0GFzbo-32" value="EMAIL" style="endArrow=none;html=1;rounded=0;align=center;verticalAlign=top;endFill=0;labelBackgroundColor=none;endSize=6;startArrow=oval;startFill=1;entryX=0;entryY=0.5;entryDx=0;entryDy=0;" parent="1" target="DlnxyM36pk9Y2z0GFzbo-3" edge="1">
          <mxGeometry x="0.1823" y="21" relative="1" as="geometry">
            <mxPoint x="615" y="571" as="sourcePoint" />
            <mxPoint x="795" y="650" as="targetPoint" />
            <Array as="points">
              <mxPoint x="635" y="571" />
            </Array>
            <mxPoint as="offset" />
          </mxGeometry>
        </mxCell>
        <mxCell id="DlnxyM36pk9Y2z0GFzbo-34" value="ID" style="endArrow=none;html=1;rounded=0;align=center;verticalAlign=top;endFill=0;labelBackgroundColor=none;endSize=6;startArrow=oval;startFill=1;entryX=0.115;entryY=-0.05;entryDx=0;entryDy=0;entryPerimeter=0;" parent="1" edge="1">
          <mxGeometry x="-0.1304" y="20" relative="1" as="geometry">
            <mxPoint x="625" y="289" as="sourcePoint" />
            <mxPoint x="684.05" y="299" as="targetPoint" />
            <Array as="points">
              <mxPoint x="684" y="289" />
            </Array>
            <mxPoint as="offset" />
          </mxGeometry>
        </mxCell>
        <mxCell id="DlnxyM36pk9Y2z0GFzbo-35" value="C.F." style="endArrow=none;html=1;rounded=0;align=center;verticalAlign=top;endFill=0;labelBackgroundColor=none;endSize=6;startArrow=oval;startFill=1;" parent="1" edge="1">
          <mxGeometry x="-0.0741" y="-24" relative="1" as="geometry">
            <mxPoint x="1171.75" y="406" as="sourcePoint" />
            <mxPoint x="1128.75" y="423" as="targetPoint" />
            <Array as="points">
              <mxPoint x="1128.75" y="406" />
            </Array>
            <mxPoint as="offset" />
          </mxGeometry>
        </mxCell>
        <mxCell id="DlnxyM36pk9Y2z0GFzbo-36" value="COSTO" style="html=1;verticalAlign=bottom;labelBackgroundColor=none;endArrow=oval;endFill=0;endSize=8;rounded=0;exitX=0.865;exitY=-0.05;exitDx=0;exitDy=0;exitPerimeter=0;" parent="1" edge="1">
          <mxGeometry x="0.2309" y="1" width="160" relative="1" as="geometry">
            <mxPoint x="769.05" y="299" as="sourcePoint" />
            <mxPoint x="845" y="280" as="targetPoint" />
            <Array as="points">
              <mxPoint x="769" y="280" />
            </Array>
            <mxPoint as="offset" />
          </mxGeometry>
        </mxCell>
        <mxCell id="DlnxyM36pk9Y2z0GFzbo-37" value="GRADO" style="html=1;verticalAlign=bottom;labelBackgroundColor=none;endArrow=oval;endFill=0;endSize=8;rounded=0;" parent="1" edge="1">
          <mxGeometry width="160" relative="1" as="geometry">
            <mxPoint x="1150.5" y="457" as="sourcePoint" />
            <mxPoint x="1229.75" y="457" as="targetPoint" />
          </mxGeometry>
        </mxCell>
        <mxCell id="DlnxyM36pk9Y2z0GFzbo-39" value="STATUS" style="html=1;verticalAlign=bottom;labelBackgroundColor=none;endArrow=oval;endFill=0;endSize=8;rounded=0;exitX=0;exitY=1;exitDx=0;exitDy=0;" parent="1" edge="1">
          <mxGeometry x="0.2727" width="160" relative="1" as="geometry">
            <mxPoint x="246.5" y="453" as="sourcePoint" />
            <mxPoint x="163" y="465.44000000000005" as="targetPoint" />
            <Array as="points">
              <mxPoint x="233" y="465.44000000000005" />
            </Array>
            <mxPoint as="offset" />
          </mxGeometry>
        </mxCell>
        <mxCell id="DlnxyM36pk9Y2z0GFzbo-40" value="TELEFONO" style="html=1;verticalAlign=bottom;labelBackgroundColor=none;endArrow=oval;endFill=0;endSize=8;rounded=0;" parent="1" edge="1">
          <mxGeometry x="-0.0476" width="160" relative="1" as="geometry">
            <mxPoint x="745" y="590" as="sourcePoint" />
            <mxPoint x="851" y="610" as="targetPoint" />
            <Array as="points">
              <mxPoint x="745" y="610" />
            </Array>
            <mxPoint as="offset" />
          </mxGeometry>
        </mxCell>
        <mxCell id="DlnxyM36pk9Y2z0GFzbo-41" value="NOME" style="html=1;verticalAlign=bottom;labelBackgroundColor=none;endArrow=oval;endFill=0;endSize=8;rounded=0;exitX=0.327;exitY=1.025;exitDx=0;exitDy=0;exitPerimeter=0;" parent="1" source="DlnxyM36pk9Y2z0GFzbo-3" edge="1">
          <mxGeometry x="0.2188" width="160" relative="1" as="geometry">
            <mxPoint x="685.25" y="590" as="sourcePoint" />
            <mxPoint x="605" y="610" as="targetPoint" />
            <Array as="points">
              <mxPoint x="705" y="610" />
            </Array>
            <mxPoint as="offset" />
          </mxGeometry>
        </mxCell>
        <mxCell id="DlnxyM36pk9Y2z0GFzbo-42" value="" style="html=1;verticalAlign=bottom;labelBackgroundColor=none;endArrow=oval;endFill=0;endSize=8;rounded=0;" parent="1" edge="1">
          <mxGeometry x="0.2857" width="160" relative="1" as="geometry">
            <mxPoint x="469" y="602" as="sourcePoint" />
            <mxPoint x="369" y="642" as="targetPoint" />
            <Array as="points">
              <mxPoint x="469" y="642" />
            </Array>
            <mxPoint as="offset" />
          </mxGeometry>
        </mxCell>
        <mxCell id="DlnxyM36pk9Y2z0GFzbo-43" value="INDIRIZZO" style="html=1;verticalAlign=bottom;labelBackgroundColor=none;endArrow=oval;endFill=0;endSize=8;rounded=0;exitX=0.75;exitY=1;exitDx=0;exitDy=0;" parent="1" source="DlnxyM36pk9Y2z0GFzbo-4" edge="1">
          <mxGeometry x="0.2727" width="160" relative="1" as="geometry">
            <mxPoint x="483" y="613" as="sourcePoint" />
            <mxPoint x="569" y="623" as="targetPoint" />
            <Array as="points">
              <mxPoint x="480" y="623" />
            </Array>
            <mxPoint as="offset" />
          </mxGeometry>
        </mxCell>
        <mxCell id="DlnxyM36pk9Y2z0GFzbo-44" value="TIPO&amp;nbsp;&lt;div&gt;ASSICURAZIONE&lt;/div&gt;" style="html=1;verticalAlign=bottom;labelBackgroundColor=none;endArrow=oval;endFill=0;endSize=8;rounded=0;exitX=0.665;exitY=0;exitDx=0;exitDy=0;exitPerimeter=0;" parent="1" source="DlnxyM36pk9Y2z0GFzbo-70" edge="1">
          <mxGeometry x="0.4618" width="160" relative="1" as="geometry">
            <mxPoint x="745.5" y="261" as="sourcePoint" />
            <mxPoint x="845.75" y="230" as="targetPoint" />
            <Array as="points">
              <mxPoint x="745.75" y="230" />
            </Array>
            <mxPoint as="offset" />
          </mxGeometry>
        </mxCell>
        <mxCell id="DlnxyM36pk9Y2z0GFzbo-45" value="TIPO CARTA&amp;nbsp;" style="html=1;verticalAlign=bottom;labelBackgroundColor=none;endArrow=oval;endFill=0;endSize=8;rounded=0;" parent="1" edge="1">
          <mxGeometry x="0.0719" width="160" relative="1" as="geometry">
            <mxPoint x="706.25" y="300" as="sourcePoint" />
            <mxPoint x="586.25" y="247" as="targetPoint" />
            <Array as="points">
              <mxPoint x="706.25" y="247" />
            </Array>
            <mxPoint as="offset" />
          </mxGeometry>
        </mxCell>
        <mxCell id="DlnxyM36pk9Y2z0GFzbo-46" value="INDIRIZZO" style="html=1;verticalAlign=bottom;labelBackgroundColor=none;endArrow=oval;endFill=0;endSize=8;rounded=0;exitX=0.56;exitY=1;exitDx=0;exitDy=0;exitPerimeter=0;" parent="1" edge="1">
          <mxGeometry x="0.2537" width="160" relative="1" as="geometry">
            <mxPoint x="734.25" y="591" as="sourcePoint" />
            <mxPoint x="829" y="630" as="targetPoint" />
            <Array as="points">
              <mxPoint x="734" y="630" />
            </Array>
            <mxPoint as="offset" />
          </mxGeometry>
        </mxCell>
        <mxCell id="DlnxyM36pk9Y2z0GFzbo-47" value="DIMENSIONI" style="html=1;verticalAlign=bottom;labelBackgroundColor=none;endArrow=oval;endFill=0;endSize=8;rounded=0;exitX=0.865;exitY=-0.05;exitDx=0;exitDy=0;exitPerimeter=0;" parent="1" edge="1">
          <mxGeometry x="0.2309" y="1" width="160" relative="1" as="geometry">
            <mxPoint x="761.05" y="301" as="sourcePoint" />
            <mxPoint x="837" y="260" as="targetPoint" />
            <Array as="points">
              <mxPoint x="761" y="260" />
            </Array>
            <mxPoint as="offset" />
          </mxGeometry>
        </mxCell>
        <mxCell id="DlnxyM36pk9Y2z0GFzbo-48" value="DATAORDINE" style="html=1;verticalAlign=bottom;labelBackgroundColor=none;endArrow=oval;endFill=0;endSize=8;rounded=0;exitX=0.906;exitY=0.975;exitDx=0;exitDy=0;exitPerimeter=0;" parent="1" edge="1">
          <mxGeometry x="0.2309" y="1" width="160" relative="1" as="geometry">
            <mxPoint x="773.97" y="340" as="sourcePoint" />
            <mxPoint x="850" y="358" as="targetPoint" />
            <Array as="points">
              <mxPoint x="774" y="358" />
            </Array>
            <mxPoint as="offset" />
          </mxGeometry>
        </mxCell>
        <mxCell id="DlnxyM36pk9Y2z0GFzbo-49" value="DATAPREVISTA" style="html=1;verticalAlign=bottom;labelBackgroundColor=none;endArrow=oval;endFill=0;endSize=8;rounded=0;exitX=0.75;exitY=1;exitDx=0;exitDy=0;" parent="1" edge="1">
          <mxGeometry x="0.3333" width="160" relative="1" as="geometry">
            <mxPoint x="766.25" y="340" as="sourcePoint" />
            <mxPoint x="866" y="390" as="targetPoint" />
            <Array as="points">
              <mxPoint x="766" y="390" />
            </Array>
            <mxPoint as="offset" />
          </mxGeometry>
        </mxCell>
        <mxCell id="DlnxyM36pk9Y2z0GFzbo-50" value="TIPOLOGIA" style="html=1;verticalAlign=bottom;labelBackgroundColor=none;endArrow=oval;endFill=0;endSize=8;rounded=0;exitX=0.25;exitY=0;exitDx=0;exitDy=0;" parent="1" source="DlnxyM36pk9Y2z0GFzbo-1" edge="1">
          <mxGeometry x="0.3333" width="160" relative="1" as="geometry">
            <mxPoint x="496.25" y="200" as="sourcePoint" />
            <mxPoint x="596" y="270" as="targetPoint" />
            <Array as="points">
              <mxPoint x="695" y="270" />
            </Array>
            <mxPoint as="offset" />
          </mxGeometry>
        </mxCell>
        <mxCell id="DlnxyM36pk9Y2z0GFzbo-51" value="DISPONIBILITÀ" style="html=1;verticalAlign=bottom;labelBackgroundColor=none;endArrow=oval;endFill=0;endSize=8;rounded=0;" parent="1" edge="1">
          <mxGeometry x="0.4444" width="160" relative="1" as="geometry">
            <mxPoint x="1114.75" y="460" as="sourcePoint" />
            <mxPoint x="1209.75" y="485" as="targetPoint" />
            <Array as="points">
              <mxPoint x="1114.75" y="485" />
              <mxPoint x="1161.75" y="485" />
            </Array>
            <mxPoint as="offset" />
          </mxGeometry>
        </mxCell>
        <mxCell id="DlnxyM36pk9Y2z0GFzbo-52" value="NOTE" style="html=1;verticalAlign=bottom;labelBackgroundColor=none;endArrow=oval;endFill=0;endSize=8;rounded=0;exitX=0.56;exitY=1;exitDx=0;exitDy=0;exitPerimeter=0;" parent="1" edge="1">
          <mxGeometry x="0.4444" width="160" relative="1" as="geometry">
            <mxPoint x="270.50000000000006" y="453" as="sourcePoint" />
            <mxPoint x="164.25" y="502" as="targetPoint" />
            <Array as="points">
              <mxPoint x="270.25" y="502" />
            </Array>
            <mxPoint as="offset" />
          </mxGeometry>
        </mxCell>
        <mxCell id="DlnxyM36pk9Y2z0GFzbo-53" value="COGNOME" style="html=1;verticalAlign=bottom;labelBackgroundColor=none;endArrow=oval;endFill=0;endSize=8;rounded=0;exitX=0.56;exitY=1;exitDx=0;exitDy=0;exitPerimeter=0;" parent="1" edge="1">
          <mxGeometry x="0.2537" width="160" relative="1" as="geometry">
            <mxPoint x="717.25" y="592" as="sourcePoint" />
            <mxPoint x="605" y="631" as="targetPoint" />
            <Array as="points">
              <mxPoint x="717" y="631" />
            </Array>
            <mxPoint as="offset" />
          </mxGeometry>
        </mxCell>
        <mxCell id="DlnxyM36pk9Y2z0GFzbo-54" value="DEDICA" style="html=1;verticalAlign=bottom;labelBackgroundColor=none;endArrow=oval;endFill=0;endSize=8;rounded=0;exitX=0.431;exitY=-0.075;exitDx=0;exitDy=0;exitPerimeter=0;" parent="1" source="DlnxyM36pk9Y2z0GFzbo-70" edge="1">
          <mxGeometry x="0.4822" width="160" relative="1" as="geometry">
            <mxPoint x="717.5" y="270" as="sourcePoint" />
            <mxPoint x="640" y="220" as="targetPoint" />
            <Array as="points">
              <mxPoint x="717.5" y="220" />
            </Array>
            <mxPoint as="offset" />
          </mxGeometry>
        </mxCell>
        <mxCell id="DlnxyM36pk9Y2z0GFzbo-55" value="BOUNDLE-PACCHI" style="rhombus;whiteSpace=wrap;html=1;rounded=1;glass=0;strokeWidth=1;shadow=0;" parent="1" vertex="1">
          <mxGeometry x="441" y="114" width="90" height="90" as="geometry" />
        </mxCell>
        <mxCell id="DlnxyM36pk9Y2z0GFzbo-56" value="(2,N)" style="text;strokeColor=none;align=center;fillColor=none;html=1;verticalAlign=middle;whiteSpace=wrap;rounded=0;" parent="1" vertex="1">
          <mxGeometry x="475" y="280" width="60" height="30" as="geometry" />
        </mxCell>
        <mxCell id="DlnxyM36pk9Y2z0GFzbo-57" value="(1,1)" style="text;strokeColor=none;align=center;fillColor=none;html=1;verticalAlign=middle;whiteSpace=wrap;rounded=0;" parent="1" vertex="1">
          <mxGeometry x="603.25" y="323" width="60" height="30" as="geometry" />
        </mxCell>
        <mxCell id="DlnxyM36pk9Y2z0GFzbo-58" value="" style="endArrow=none;html=1;rounded=0;entryX=0.5;entryY=1;entryDx=0;entryDy=0;exitX=0;exitY=0.25;exitDx=0;exitDy=0;" parent="1" source="DlnxyM36pk9Y2z0GFzbo-1" target="DlnxyM36pk9Y2z0GFzbo-55" edge="1">
          <mxGeometry width="50" height="50" relative="1" as="geometry">
            <mxPoint x="381.75" y="285" as="sourcePoint" />
            <mxPoint x="431.75" y="235" as="targetPoint" />
            <Array as="points">
              <mxPoint x="485" y="310" />
            </Array>
          </mxGeometry>
        </mxCell>
        <mxCell id="DlnxyM36pk9Y2z0GFzbo-59" value="" style="endArrow=none;html=1;rounded=0;entryX=1;entryY=0;entryDx=0;entryDy=0;exitX=0.5;exitY=0;exitDx=0;exitDy=0;" parent="1" target="DlnxyM36pk9Y2z0GFzbo-57" edge="1">
          <mxGeometry width="50" height="50" relative="1" as="geometry">
            <mxPoint x="484.75" y="398" as="sourcePoint" />
            <mxPoint x="325" y="285" as="targetPoint" />
            <Array as="points">
              <mxPoint x="485" y="323" />
            </Array>
          </mxGeometry>
        </mxCell>
        <mxCell id="DlnxyM36pk9Y2z0GFzbo-60" value="" style="endArrow=none;html=1;rounded=0;entryX=0.496;entryY=1;entryDx=0;entryDy=0;exitX=0.5;exitY=0;exitDx=0;exitDy=0;entryPerimeter=0;" parent="1" source="DlnxyM36pk9Y2z0GFzbo-22" target="DlnxyM36pk9Y2z0GFzbo-5" edge="1">
          <mxGeometry width="50" height="50" relative="1" as="geometry">
            <mxPoint x="313.75" y="815" as="sourcePoint" />
            <mxPoint x="491.75" y="740" as="targetPoint" />
            <Array as="points" />
          </mxGeometry>
        </mxCell>
        <mxCell id="DlnxyM36pk9Y2z0GFzbo-61" value="" style="endArrow=none;html=1;rounded=0;entryX=0;entryY=0.5;entryDx=0;entryDy=0;exitX=1;exitY=0.5;exitDx=0;exitDy=0;" parent="1" source="DlnxyM36pk9Y2z0GFzbo-5" target="DlnxyM36pk9Y2z0GFzbo-78" edge="1">
          <mxGeometry width="50" height="50" relative="1" as="geometry">
            <mxPoint x="485" y="550" as="sourcePoint" />
            <mxPoint x="535" y="470" as="targetPoint" />
            <Array as="points" />
          </mxGeometry>
        </mxCell>
        <mxCell id="DlnxyM36pk9Y2z0GFzbo-62" value="" style="endArrow=none;html=1;rounded=0;entryX=1;entryY=0.5;entryDx=0;entryDy=0;exitX=0;exitY=0.5;exitDx=0;exitDy=0;" parent="1" source="DlnxyM36pk9Y2z0GFzbo-4" target="DlnxyM36pk9Y2z0GFzbo-22" edge="1">
          <mxGeometry width="50" height="50" relative="1" as="geometry">
            <mxPoint x="602.14" y="677" as="sourcePoint" />
            <mxPoint x="602.14" y="605" as="targetPoint" />
            <Array as="points" />
          </mxGeometry>
        </mxCell>
        <mxCell id="DlnxyM36pk9Y2z0GFzbo-63" value="" style="endArrow=none;html=1;rounded=0;entryX=1;entryY=0.5;entryDx=0;entryDy=0;exitX=0;exitY=0.5;exitDx=0;exitDy=0;" parent="1" source="DlnxyM36pk9Y2z0GFzbo-2" target="DlnxyM36pk9Y2z0GFzbo-7" edge="1">
          <mxGeometry width="50" height="50" relative="1" as="geometry">
            <mxPoint x="880" y="560" as="sourcePoint" />
            <mxPoint x="983" y="440" as="targetPoint" />
            <Array as="points" />
          </mxGeometry>
        </mxCell>
        <mxCell id="DlnxyM36pk9Y2z0GFzbo-64" value="" style="endArrow=none;html=1;rounded=0;entryX=0.5;entryY=1;entryDx=0;entryDy=0;exitX=0.5;exitY=0;exitDx=0;exitDy=0;" parent="1" edge="1">
          <mxGeometry width="50" height="50" relative="1" as="geometry">
            <mxPoint x="726.75" y="550" as="sourcePoint" />
            <mxPoint x="726.75" y="479" as="targetPoint" />
            <Array as="points" />
          </mxGeometry>
        </mxCell>
        <mxCell id="DlnxyM36pk9Y2z0GFzbo-65" value="" style="endArrow=none;html=1;rounded=0;entryX=0.885;entryY=0.007;entryDx=0;entryDy=0;exitX=0.5;exitY=0;exitDx=0;exitDy=0;entryPerimeter=0;" parent="1" source="DlnxyM36pk9Y2z0GFzbo-8" target="DlnxyM36pk9Y2z0GFzbo-29" edge="1">
          <mxGeometry width="50" height="50" relative="1" as="geometry">
            <mxPoint x="736" y="418" as="sourcePoint" />
            <mxPoint x="736" y="347" as="targetPoint" />
            <Array as="points" />
          </mxGeometry>
        </mxCell>
        <mxCell id="DlnxyM36pk9Y2z0GFzbo-66" value="" style="endArrow=none;html=1;rounded=0;entryX=0.5;entryY=0;entryDx=0;entryDy=0;exitX=1;exitY=0.5;exitDx=0;exitDy=0;" parent="1" source="DlnxyM36pk9Y2z0GFzbo-1" target="DlnxyM36pk9Y2z0GFzbo-7" edge="1">
          <mxGeometry width="50" height="50" relative="1" as="geometry">
            <mxPoint x="916.25" y="285" as="sourcePoint" />
            <mxPoint x="1094.25" y="210" as="targetPoint" />
            <Array as="points">
              <mxPoint x="917" y="320" />
            </Array>
          </mxGeometry>
        </mxCell>
        <mxCell id="DlnxyM36pk9Y2z0GFzbo-67" value="" style="endArrow=none;html=1;rounded=0;entryX=0.5;entryY=1;entryDx=0;entryDy=0;exitX=0.5;exitY=0;exitDx=0;exitDy=0;" parent="1" source="DlnxyM36pk9Y2z0GFzbo-6" edge="1">
          <mxGeometry width="50" height="50" relative="1" as="geometry">
            <mxPoint x="1091" y="487" as="sourcePoint" />
            <mxPoint x="1090.75" y="460" as="targetPoint" />
            <Array as="points">
              <mxPoint x="966" y="512" />
              <mxPoint x="1091" y="512" />
            </Array>
          </mxGeometry>
        </mxCell>
        <mxCell id="DlnxyM36pk9Y2z0GFzbo-69" value="" style="endArrow=none;html=1;rounded=0;entryX=1;entryY=0.5;entryDx=0;entryDy=0;exitX=0.5;exitY=1;exitDx=0;exitDy=0;" parent="1" source="DlnxyM36pk9Y2z0GFzbo-6" target="DlnxyM36pk9Y2z0GFzbo-4" edge="1">
          <mxGeometry width="50" height="50" relative="1" as="geometry">
            <mxPoint x="952" y="747" as="sourcePoint" />
            <mxPoint x="811" y="747" as="targetPoint" />
            <Array as="points">
              <mxPoint x="966" y="658" />
              <mxPoint x="582" y="658" />
              <mxPoint x="582" y="582" />
            </Array>
          </mxGeometry>
        </mxCell>
        <mxCell id="DlnxyM36pk9Y2z0GFzbo-70" value="PACCO" style="rounded=1;whiteSpace=wrap;html=1;fontSize=12;glass=0;strokeWidth=1;shadow=0;" parent="1" vertex="1">
          <mxGeometry x="665.25" y="300" width="120" height="40" as="geometry" />
        </mxCell>
        <mxCell id="DlnxyM36pk9Y2z0GFzbo-72" value="CLIENTE" style="rounded=1;whiteSpace=wrap;html=1;fontSize=12;glass=0;strokeWidth=1;shadow=0;" parent="1" vertex="1">
          <mxGeometry x="665.75" y="551" width="120" height="40" as="geometry" />
        </mxCell>
        <mxCell id="DlnxyM36pk9Y2z0GFzbo-73" value="FILIALE" style="rounded=1;whiteSpace=wrap;html=1;fontSize=12;glass=0;strokeWidth=1;shadow=0;" parent="1" vertex="1">
          <mxGeometry x="389.75" y="562" width="120" height="40" as="geometry" />
        </mxCell>
        <mxCell id="DlnxyM36pk9Y2z0GFzbo-77" value="ORDINE" style="rhombus;whiteSpace=wrap;html=1;rounded=1;glass=0;strokeWidth=1;shadow=0;" parent="1" vertex="1">
          <mxGeometry x="685.75" y="400" width="80" height="80" as="geometry" />
        </mxCell>
        <mxCell id="DlnxyM36pk9Y2z0GFzbo-78" value="STATUS" style="rhombus;whiteSpace=wrap;html=1;rounded=1;glass=0;strokeWidth=1;shadow=0;" parent="1" vertex="1">
          <mxGeometry x="444.75" y="393" width="80" height="80" as="geometry" />
        </mxCell>
        <mxCell id="DlnxyM36pk9Y2z0GFzbo-84" value="(1,1)" style="text;strokeColor=none;align=center;fillColor=none;html=1;verticalAlign=middle;whiteSpace=wrap;rounded=0;" parent="1" vertex="1">
          <mxGeometry x="805.25" y="290" width="60" height="30" as="geometry" />
        </mxCell>
        <mxCell id="DlnxyM36pk9Y2z0GFzbo-90" value="CITTÀ" style="text;html=1;align=center;verticalAlign=middle;resizable=0;points=[];autosize=1;strokeColor=none;fillColor=none;" parent="1" vertex="1">
          <mxGeometry x="409.5" y="619" width="60" height="30" as="geometry" />
        </mxCell>
        <mxCell id="DlnxyM36pk9Y2z0GFzbo-91" value="" style="html=1;verticalAlign=bottom;labelBackgroundColor=none;endArrow=oval;endFill=0;endSize=8;rounded=0;exitX=0.987;exitY=0.198;exitDx=0;exitDy=0;exitPerimeter=0;" parent="1" source="DlnxyM36pk9Y2z0GFzbo-92" edge="1">
          <mxGeometry x="0.0588" y="21" width="160" relative="1" as="geometry">
            <mxPoint x="454.25" y="599" as="sourcePoint" />
            <mxPoint x="369" y="620" as="targetPoint" />
            <Array as="points">
              <mxPoint x="454.25" y="620" />
            </Array>
            <mxPoint as="offset" />
          </mxGeometry>
        </mxCell>
        <mxCell id="DlnxyM36pk9Y2z0GFzbo-92" value="NOME" style="text;html=1;align=center;verticalAlign=middle;resizable=0;points=[];autosize=1;strokeColor=none;fillColor=none;" parent="1" vertex="1">
          <mxGeometry x="395" y="598" width="60" height="30" as="geometry" />
        </mxCell>
        <mxCell id="DlnxyM36pk9Y2z0GFzbo-93" value="" style="endArrow=none;html=1;rounded=0;align=center;verticalAlign=top;endFill=0;labelBackgroundColor=none;endSize=6;startArrow=oval;startFill=1;" parent="1" edge="1">
          <mxGeometry relative="1" as="geometry">
            <mxPoint x="424" y="673" as="sourcePoint" />
            <mxPoint x="384" y="593" as="targetPoint" />
            <Array as="points">
              <mxPoint x="384" y="673" />
            </Array>
          </mxGeometry>
        </mxCell>
        <mxCell id="DlnxyM36pk9Y2z0GFzbo-94" value="(0,1)" style="text;strokeColor=none;align=center;fillColor=none;html=1;verticalAlign=middle;whiteSpace=wrap;rounded=0;" parent="1" vertex="1">
          <mxGeometry x="804" y="585" width="60" height="30" as="geometry" />
        </mxCell>
        <mxCell id="DlnxyM36pk9Y2z0GFzbo-95" value="(0,1)" style="text;strokeColor=none;align=center;fillColor=none;html=1;verticalAlign=middle;whiteSpace=wrap;rounded=0;" parent="1" vertex="1">
          <mxGeometry x="219.25" y="474" width="60" height="30" as="geometry" />
        </mxCell>
        <mxCell id="DlnxyM36pk9Y2z0GFzbo-96" value="TIPO" style="html=1;verticalAlign=bottom;labelBackgroundColor=none;endArrow=oval;endFill=0;endSize=8;rounded=0;exitX=0.702;exitY=0.975;exitDx=0;exitDy=0;exitPerimeter=0;" parent="1" source="DlnxyM36pk9Y2z0GFzbo-73" edge="1">
          <mxGeometry x="0.2727" width="160" relative="1" as="geometry">
            <mxPoint x="474.25" y="623.5" as="sourcePoint" />
            <mxPoint x="563.25" y="644.5" as="targetPoint" />
            <Array as="points">
              <mxPoint x="474.25" y="644.5" />
            </Array>
            <mxPoint as="offset" />
          </mxGeometry>
        </mxCell>
        <mxCell id="DlnxyM36pk9Y2z0GFzbo-104" value="(0,1)" style="text;strokeColor=none;align=center;fillColor=none;html=1;verticalAlign=middle;whiteSpace=wrap;rounded=0;" parent="1" vertex="1">
          <mxGeometry x="612.25" y="190" width="60" height="30" as="geometry" />
        </mxCell>
        <mxCell id="DlnxyM36pk9Y2z0GFzbo-105" value="(0,1)" style="text;strokeColor=none;align=center;fillColor=none;html=1;verticalAlign=middle;whiteSpace=wrap;rounded=0;" parent="1" vertex="1">
          <mxGeometry x="805.25" y="190" width="60" height="30" as="geometry" />
        </mxCell>
        <mxCell id="DlnxyM36pk9Y2z0GFzbo-106" value="(0,1)" style="text;strokeColor=none;align=center;fillColor=none;html=1;verticalAlign=middle;whiteSpace=wrap;rounded=0;" parent="1" vertex="1">
          <mxGeometry x="580" y="220" width="60" height="30" as="geometry" />
        </mxCell>
        <mxCell id="XuYNTkWPWjFooB4RPWUa-3" value="" style="endArrow=none;html=1;rounded=0;entryX=1;entryY=0.5;entryDx=0;entryDy=0;" parent="1" target="DlnxyM36pk9Y2z0GFzbo-55" edge="1">
          <mxGeometry width="50" height="50" relative="1" as="geometry">
            <mxPoint x="730" y="300" as="sourcePoint" />
            <mxPoint x="728.935" y="124" as="targetPoint" />
            <Array as="points">
              <mxPoint x="728" y="157" />
            </Array>
          </mxGeometry>
        </mxCell>
        <mxCell id="XuYNTkWPWjFooB4RPWUa-5" value="(0,1)" style="text;strokeColor=none;align=center;fillColor=none;html=1;verticalAlign=middle;whiteSpace=wrap;rounded=0;" parent="1" vertex="1">
          <mxGeometry x="677" y="154" width="60" height="30" as="geometry" />
        </mxCell>
        <mxCell id="1LdOsODMKSjzcrVCFhpL-2" value="È CONTENUTO" style="text;html=1;align=center;verticalAlign=middle;resizable=0;points=[];autosize=1;strokeColor=none;fillColor=none;" parent="1" vertex="1">
          <mxGeometry x="552.75" y="129" width="110" height="30" as="geometry" />
        </mxCell>
        <mxCell id="1LdOsODMKSjzcrVCFhpL-3" value="CONTIENE" style="text;html=1;align=center;verticalAlign=middle;resizable=0;points=[];autosize=1;strokeColor=none;fillColor=none;rotation=-90;" parent="1" vertex="1">
          <mxGeometry x="424" y="217" width="90" height="30" as="geometry" />
        </mxCell>
        <mxCell id="uH3Jx_OWeDsCe7qxDe3u-1" value="QUANTITÀ" style="html=1;verticalAlign=bottom;labelBackgroundColor=none;endArrow=oval;endFill=0;endSize=8;rounded=0;" parent="1" source="DlnxyM36pk9Y2z0GFzbo-55" edge="1">
          <mxGeometry x="0.2537" width="160" relative="1" as="geometry">
            <mxPoint x="515" y="69" as="sourcePoint" />
            <mxPoint x="572.75" y="116" as="targetPoint" />
            <Array as="points">
              <mxPoint x="508.75" y="116" />
            </Array>
            <mxPoint as="offset" />
          </mxGeometry>
        </mxCell>
        <mxCell id="uH3Jx_OWeDsCe7qxDe3u-2" value="ATTUALE" style="html=1;verticalAlign=bottom;labelBackgroundColor=none;endArrow=oval;endFill=0;endSize=8;rounded=0;exitX=0.56;exitY=1;exitDx=0;exitDy=0;exitPerimeter=0;" parent="1" edge="1">
          <mxGeometry x="0.2537" width="160" relative="1" as="geometry">
            <mxPoint x="993.25" y="598" as="sourcePoint" />
            <mxPoint x="1068" y="617" as="targetPoint" />
            <Array as="points">
              <mxPoint x="993" y="617" />
            </Array>
            <mxPoint as="offset" />
          </mxGeometry>
        </mxCell>
        <mxCell id="RrEV20Mq2PKOKyZz7-tZ-1" value="(1,1)" style="text;strokeColor=none;align=center;fillColor=none;html=1;verticalAlign=middle;whiteSpace=wrap;rounded=0;" vertex="1" parent="1">
          <mxGeometry x="375.5" y="406" width="60" height="30" as="geometry" />
        </mxCell>
        <mxCell id="RrEV20Mq2PKOKyZz7-tZ-2" value="" style="endArrow=none;html=1;rounded=0;align=center;verticalAlign=top;endFill=0;labelBackgroundColor=none;endSize=6;startArrow=oval;startFill=1;" edge="1" parent="1">
          <mxGeometry relative="1" as="geometry">
            <mxPoint x="429.25" y="446" as="sourcePoint" />
            <mxPoint x="320" y="391" as="targetPoint" />
            <Array as="points">
              <mxPoint x="429.25" y="391" />
              <mxPoint x="322.25" y="391" />
            </Array>
          </mxGeometry>
        </mxCell>
        <mxCell id="RrEV20Mq2PKOKyZz7-tZ-3" value="DATAORA" style="html=1;verticalAlign=bottom;labelBackgroundColor=none;endArrow=oval;endFill=0;endSize=8;rounded=0;exitX=0.75;exitY=0;exitDx=0;exitDy=0;" edge="1" parent="1">
          <mxGeometry x="0.3334" y="2" width="160" relative="1" as="geometry">
            <mxPoint x="351.25" y="412" as="sourcePoint" />
            <mxPoint x="279.25" y="382" as="targetPoint" />
            <Array as="points">
              <mxPoint x="351.25" y="382" />
            </Array>
            <mxPoint as="offset" />
          </mxGeometry>
        </mxCell>
      </root>
    </mxGraphModel>
  </diagram>
</mxfile>
